<?xml version="1.0" standalone="no"?><!DOCTYPE svg PUBLIC "-//W3C//DTD SVG 1.1//EN" "http://www.w3.org/Graphics/SVG/1.1/DTD/svg11.dtd"><svg t="1549884776733" class="icon" style="" viewBox="0 0 1024 1024" version="1.1" xmlns="http://www.w3.org/2000/svg" p-id="1903" xmlns:xlink="http://www.w3.org/1999/xlink" width="32" height="32"><defs><style type="text/css"></style></defs><path d="M513 98.2c-228.6 0-414.6 186-414.6 414.6 0 23.9 2.6 48.2 6.5 70.9 0 0.1 0.2 0.1 0.3 0.2 1.7 5.8 6.8 10.1 13.1 10.1 7.6 0 13.8-6.2 13.8-13.8 0-0.5-0.2-0.9-0.3-1.3l0.2-0.1c-3.7-21.5-6-43.4-6-66 0-213.7 173.2-386.9 386.9-386.9s386.9 173.2 386.9 386.9S726.7 899.7 513 899.7c-142.8 0-267.2-77.6-334.2-192.7 0-0.1-0.1-0.1-0.1-0.2l-0.6-0.9c-2.3-4.3-6.8-7.4-12-7.4-7.6 0-13.8 6.2-13.8 13.8 0 3 1.2 5.6 2.8 7.9l-0.2 0.1c71.7 123.6 205.2 207 358.1 207 228.6 0 414.6-186 414.6-414.6S741.6 98.2 513 98.2z" fill="#515151" p-id="1904"></path><path d="M664.2 484.4L534 381.4c-10.8-10.6-28.1-10.5-38.8 0.1L358.3 484.4l0.1 0.1c-2.8 2.5-4.7 6.1-4.7 10.2 0 7.6 6.2 13.8 13.8 13.8 4 0 7.6-1.8 10.1-4.6l0.1 0.1 123.1-89.1v297.4c0 7.6 6.2 13.8 13.8 13.8 7.6 0 13.8-6.2 13.8-13.8V414.7l116.4 89.4 0.1-0.1c2.5 2.8 6.1 4.5 10.1 4.5 7.6 0 13.8-6.2 13.8-13.8 0.2-4.2-1.7-7.8-4.6-10.3zM622.3 329.5c0 7.6-6.2 13.8-13.8 13.8H421.9c-7.6 0-13.8-6.2-13.8-13.8 0-7.6 6.2-13.8 13.8-13.8h186.6c7.6 0 13.8 6.2 13.8 13.8z" fill="#515151" p-id="1905"></path></svg>