<?xml version="1.0" standalone="no"?><!DOCTYPE svg PUBLIC "-//W3C//DTD SVG 1.1//EN" "http://www.w3.org/Graphics/SVG/1.1/DTD/svg11.dtd"><svg t="1550119977316" class="icon" style="" viewBox="0 0 1024 1024" version="1.1" xmlns="http://www.w3.org/2000/svg" p-id="3400" xmlns:xlink="http://www.w3.org/1999/xlink" width="32" height="32"><defs><style type="text/css"></style></defs><path d="M966.128 181.12H840.96c-0.168 0-0.32-0.096-0.488-0.096-0.16 0-0.312 0.096-0.48 0.096H184.064c-0.176 0-0.32-0.096-0.48-0.096-0.16 0-0.304 0.096-0.48 0.096H57.872a32.6 32.6 0 1 0 0 65.208h93.104v651.928c0 69.32 56.392 125.744 125.712 125.744h470.688c69.32 0 125.712-56.424 125.712-125.744V246.328h93.04a32.6 32.6 0 1 0 0-65.208z m-158.256 717.136c0 33.376-27.136 60.528-60.504 60.528H276.688c-33.352 0-60.496-27.16-60.496-60.528V246.328h591.68v651.928z" fill="#1296db" p-id="3401"></path><path d="M346.488 814.744a32.608 32.608 0 0 0 32.608-32.608V422.888a32.6 32.6 0 0 0-65.216 0v359.24a32.6 32.6 0 0 0 32.608 32.616zM512 814.744a32.6 32.6 0 0 0 32.608-32.608V422.888a32.6 32.6 0 0 0-65.216 0v359.24A32.6 32.6 0 0 0 512 814.744zM677.544 814.744a32.584 32.584 0 0 0 32.6-32.608V422.888c0-18.008-14.576-32.6-32.6-32.6s-32.608 14.592-32.608 32.6v359.24a32.592 32.592 0 0 0 32.608 32.616zM318.848 157.6a32.608 32.608 0 0 0 32.608-32.6c0-23.808 64.048-59.792 160.576-59.792 96.512 0 160.544 35.984 160.544 59.792a32.6 32.6 0 0 0 32.608 32.6 32.592 32.592 0 0 0 32.6-32.6C737.792 53.736 640.736 0 512.032 0 383.312 0 286.24 53.736 286.24 125a32.608 32.608 0 0 0 32.608 32.6z" fill="#1296db" p-id="3402"></path></svg>