<?xml version="1.0" standalone="no"?><!DOCTYPE svg PUBLIC "-//W3C//DTD SVG 1.1//EN" "http://www.w3.org/Graphics/SVG/1.1/DTD/svg11.dtd"><svg t="1550648858967" class="icon" style="" viewBox="0 0 1024 1024" version="1.1" xmlns="http://www.w3.org/2000/svg" p-id="2443" xmlns:xlink="http://www.w3.org/1999/xlink" width="32" height="32"><defs><style type="text/css"></style></defs><path d="M806.868 406h-154.16c-0.479 2-0.757 2-0.757 2h166.673c-3.702-1-7.647-2-11.756-2z" fill="#707070" p-id="2444"></path><path d="M622.48 405.937c8.383-21.278 104.826-220.109-30.992-302.775 0 0-86.128-29.741-94.63 57.167C490.01 230.336 492 339.554 372 383.342v541.792l430.925-1.529c20.869 0 37.868-16.917 37.868-37.786l34.049-442.096c0-4.212-0.698-8.249-1.969-12.032-3.789-11.272-12.719-20.161-24.029-23.864" fill="#707070" p-id="2445"></path><path d="M342 850.428C342 892.165 308.165 926 266.428 926h-41.856C182.835 926 149 892.165 149 850.428V438.572C149 396.835 182.835 363 224.572 363h41.856C308.165 363 342 396.835 342 438.572v411.856z" fill="#707070" p-id="2446"></path></svg>