<?xml version="1.0" standalone="no"?><!DOCTYPE svg PUBLIC "-//W3C//DTD SVG 1.1//EN" "http://www.w3.org/Graphics/SVG/1.1/DTD/svg11.dtd"><svg t="1550120026960" class="icon" style="" viewBox="0 0 1024 1024" version="1.1" xmlns="http://www.w3.org/2000/svg" p-id="5821" xmlns:xlink="http://www.w3.org/1999/xlink" width="32" height="32"><defs><style type="text/css"></style></defs><path d="M1022.88 504.832c-0.32-1.344-0.128-2.784-0.64-4.096-0.192-0.544-0.672-0.832-0.864-1.344-0.32-0.768-0.256-1.632-0.672-2.368-92.8-177.632-294.816-304.896-507.936-304.896-213.152 0-415.136 127.072-508 304.672-0.416 0.736-0.352 1.6-0.672 2.368-0.224 0.512-0.672 0.8-0.864 1.344-0.512 1.312-0.32 2.752-0.64 4.096-0.576 2.4-1.12 4.704-1.12 7.168s0.576 4.736 1.12 7.168c0.32 1.344 0.128 2.784 0.64 4.096 0.192 0.544 0.672 0.832 0.864 1.344 0.32 0.768 0.256 1.632 0.672 2.368 92.832 177.632 294.848 304.896 508 304.896 213.12 0 415.136-127.072 507.936-304.672 0.448-0.736 0.384-1.6 0.672-2.368 0.192-0.512 0.672-0.8 0.864-1.344 0.512-1.312 0.32-2.752 0.64-4.096 0.544-2.432 1.12-4.736 1.12-7.168s-0.576-4.768-1.12-7.168z m-510.144 262.784c-179.68 0-355.584-102.112-443.232-255.84 88.128-153.92 263.776-255.68 443.232-255.68 179.616 0 355.552 102.144 443.2 255.84-88.128 153.952-263.744 255.68-443.2 255.68z" fill="#1296db" p-id="5822"></path><path d="M512.736 383.968l-0.192 0.032a127.936 127.936 0 0 0-127.744 127.872 16 16 0 0 0 31.968 0 96.064 96.064 0 0 1 95.968-95.904v-0.032a15.968 15.968 0 0 0 0-31.968z" fill="#1296db" p-id="5823"></path><path d="M512 288a224 224 0 1 0 0 448 224 224 0 0 0 0-448z m0 416c-105.888 0-192-86.112-192-192s86.112-192 192-192 192 86.112 192 192-86.112 192-192 192z" fill="#1296db" p-id="5824"></path></svg>