<?xml version="1.0" standalone="no"?><!DOCTYPE svg PUBLIC "-//W3C//DTD SVG 1.1//EN" "http://www.w3.org/Graphics/SVG/1.1/DTD/svg11.dtd"><svg t="1549702547646" class="icon" style="" viewBox="0 0 1024 1024" version="1.1" xmlns="http://www.w3.org/2000/svg" p-id="3803" xmlns:xlink="http://www.w3.org/1999/xlink" width="32" height="32"><defs><style type="text/css"></style></defs><path d="M789.942857 919.613404H178.432451c-51.2903 0-92.828219-41.537919-92.828218-92.828219V209.85679c0-51.2903 41.537919-92.828219 92.828218-92.828219h339.527337v36.11993h-339.527337c-31.424339 0-56.708289 25.64515-56.708289 56.708289v616.928395c0 31.424339 25.64515 56.708289 56.708289 56.708289h611.510406c31.424339 0 56.708289-25.64515 56.708289-56.708289v-206.244797h36.11993v206.244797c0 51.2903-41.537919 92.828219-92.828219 92.828219" fill="#515151" p-id="3804"></path><path d="M933.338977 258.618695L787.414462 113.055379c-3.250794-3.250794-7.946384-5.417989-12.641975-5.417989s-9.391182 1.805996-12.641976 5.417989L342.778131 532.40776c-2.167196 2.167196-3.611993 5.05679-4.695591 7.946385L281.37425 740.458554c-1.805996 6.140388 0 13.003175 4.695591 17.698765 3.611993 3.611993 7.946384 5.417989 13.003175 5.41799 1.444797 0 3.250794-0.361199 4.695591-0.722399l202.271605-54.541093c2.889594-0.722399 5.779189-2.528395 7.946384-4.695591L933.338977 284.263845c3.250794-3.250794 5.417989-7.946384 5.417989-12.641976s-2.167196-9.752381-5.417989-13.003174z m-562.026102 297.267019l118.834568 118.834568-165.429277 44.788713 46.594709-163.623281z m144.840917 93.911817l-119.918166-119.918166L774.772487 151.342504l119.918166 119.918166-378.536861 378.536861z" fill="#515151" p-id="3805"></path></svg>