<?xml version="1.0" standalone="no"?><!DOCTYPE svg PUBLIC "-//W3C//DTD SVG 1.1//EN" "http://www.w3.org/Graphics/SVG/1.1/DTD/svg11.dtd"><svg t="1550588142871" class="icon" style="" viewBox="0 0 1024 1024" version="1.1" xmlns="http://www.w3.org/2000/svg" p-id="4572" xmlns:xlink="http://www.w3.org/1999/xlink" width="32" height="32"><defs><style type="text/css"></style></defs><path d="M882.76 613.79C861 532.5 819 514 819.94 498.72c1.9-31.72 0.8-54-0.81-59.77-7.76-27.94-24-21.77-24-27.94 0-160.89-121-291.32-270.23-291.32S254.69 250.12 254.69 411c0 12.77-11.33 3.33-20.64 27.94-4.16 11 1.93 17.94 0 59.77-0.52 11.25-49 62.18-68.29 115.07-19.1 52.47-21.73 107.28 7.76 128.83s56.94-71.71 60.53-58.14c1.56 5.92 3.52 12.08 5.86 18.41 9.44 25.42 25.28 53.55 48.26 79.85 4.67 5.34-28.42 15.17-48.26 48.91s5.68 95.08 104.32 95.08c127.26 0 155.71-44.74 158.3-44.55 9.48 0.72 10.13 0 20.18 0 12.29 0 7.2 1 18.62 0 6.17-0.53 68 53.55 153.64 44.55 145.89-15.34 123.58-64.23 112.13-95.08-11.95-32.21-54.21-47.3-52.34-49.36 34.95-38.62 40.48-62.33 52.34-97.8 4.88-14.58 38.73 80.23 64.8 58.14 10.86-9.21 32.59-47.55 10.86-128.83z" fill="#ffffff" p-id="4573"></path><path d="M868.17 593.07c-14.41-53.91-37.78-81-51.74-97.25-6.21-7.21-11.12-12.91-10.92-16.23 1.87-31.25 0.93-54.54-1-61.4-5.85-21.09-16.71-25.26-22.54-27.51l-1.26-0.5c-0.34-78.56-28.89-152.38-80.48-208-52-56.05-121.16-86.92-194.75-86.92s-142.75 30.87-194.75 86.92-80.48 130.31-80.48 209.39c0 2.78-0.06 2.81-3.05 4.48-4.57 2.55-11.48 6.4-17.27 21.69-2.43 6.42-1.94 11.77-1.2 19.87a271.43 271.43 0 0 1 0.88 41.41c-0.35 3.21-9.12 15.42-16.87 26.19-16.51 23-39.12 54.43-51.13 87.42-17.74 48.74-24.56 109.68 9.51 134.57 5.2 3.8 10.76 5 16.53 3.68 17-4 30.53-30.16 40.4-49.25 1.26-2.45 2.66-5.15 4-7.53 1.13 3.66 2.39 7.36 3.77 11.06 10.28 27.7 26.6 55 47.26 79.18-1.54 1.24-4 2.93-6.2 4.47-10.52 7.29-28.14 19.5-40.68 40.83-9.61 16.35-9.12 37.79 1.28 56 17 29.64 56.09 46.65 107.36 46.65 47.64 0 87.31-6.19 117.92-18.4 24.85-9.92 36.85-21.26 41.37-25.53l0.52-0.5a84.2 84.2 0 0 0 10.47 0.07c2.09-0.09 4.47-0.19 8.2-0.19 5 0 6.95 0.17 8.4 0.29 2.42 0.2 3.8 0.27 9.93-0.24 1.46 0.63 5.08 2.84 8.59 5 20.64 12.63 66.27 40.53 125.92 40.53a190.58 190.58 0 0 0 19.95-1c65.89-6.93 104.77-21.38 118.88-44.19 11.83-19.13 4-40-1.69-55.21l-0.89-2.39C782.88 784.92 756.6 770 744 762.82l-1.27-0.72c29.42-33.63 37-56.88 46.61-86l1.38-4.21c2.39 3.46 5.51 8.64 8.2 13.12 11.71 19.47 26.29 43.7 42.28 46.33a17.61 17.61 0 0 0 14.55-4.3c14.58-12.42 33.65-54.56 12.42-133.97z m-2.95 91.78c-4.67 23.93-14.13 33-16 34.52a7.61 7.61 0 0 1-6.46 2.06c-11.43-1.88-25.82-25.79-35.33-41.62-9.32-15.49-13.17-21.9-19-21.27-1.22 0.13-4.21 0.88-5.56 4.91-1.09 3.25-2.12 6.41-3.13 9.49-10 30.33-17.14 52.25-48.18 86.55a5.21 5.21 0 0 0-1.29 4.34c0.49 3 2.55 4.19 8.69 7.67 11.6 6.59 35.75 20.3 44 42.44l0.9 2.42c5.53 14.76 11.8 31.49 2.55 46.44-12.2 19.73-49.68 33-111.42 39.51-66 6.95-117.58-24.6-139.6-38.07-7.72-4.72-10.64-6.51-13.39-6.51h-0.56c-6.19 0.54-7.06 0.46-9 0.3-1.62-0.14-3.84-0.32-9.23-0.32-3.94 0-6.53 0.11-8.62 0.2a77.66 77.66 0 0 1-11.19-0.18c-2.54-0.18-4 1.21-6.26 3.33-36 34.05-102.76 41.2-152.41 41.2-47.58 0-83.55-15.17-98.68-41.61-8.62-15.07-9.13-32.67-1.33-45.93 11.43-19.44 27.27-30.42 37.76-37.68 7.13-4.94 11.06-7.66 11.58-11.85a6.6 6.6 0 0 0-1.63-5.2c-26.26-30.07-40.23-59.18-47.33-78.3-2.25-6.07-4.18-12.11-5.72-17.94-1.1-4.15-4.05-4.91-5.27-5-5.23-0.57-7.67 4.2-15 18.34-8 15.39-21.28 41.16-33.81 44.11-2.87 0.68-5.52 0-8.34-2-24.39-17.82-26.75-66.13-6-123.08 11.54-31.7 33.68-62.51 49.85-85 12.8-17.81 18.47-25.92 18.73-31.54a280.8 280.8 0 0 0-0.91-42.81c-0.7-7.66-1-11.15 0.59-15.41 4.49-11.88 9.09-14.44 12.78-16.5s8.18-4.56 8.18-13.21c0-157.88 119-286.32 265.23-286.32s265.32 128.38 265.32 286.26c0 5.48 4.8 7.33 7.67 8.43 4.77 1.84 12 4.61 16.5 20.85 1.37 4.92 2.51 26.79 0.63 58.13-0.44 7.37 5 13.73 13.33 23.35 13.4 15.56 35.83 41.6 49.66 93.3 9.24 34.6 11.48 64.61 6.7 89.2z" fill="#ffffff" p-id="4574"></path></svg>