<?xml version="1.0" standalone="no"?><!DOCTYPE svg PUBLIC "-//W3C//DTD SVG 1.1//EN" "http://www.w3.org/Graphics/SVG/1.1/DTD/svg11.dtd"><svg t="1550588189355" class="icon" style="" viewBox="0 0 1024 1024" version="1.1" xmlns="http://www.w3.org/2000/svg" p-id="6248" xmlns:xlink="http://www.w3.org/1999/xlink" width="32" height="32"><defs><style type="text/css"></style></defs><path d="M904.41429 354.712784l-0.010239-0.030716c-3.167901-9.680836-11.759323-16.484554-21.858928-17.328236l-238.360504-20.466443-93.125442-220.372887a25.197818 25.197818 0 0 0-23.26165-15.438143 25.183483 25.183483 0 0 0-23.258579 15.428928l-93.129538 220.381078-238.330811 20.463372c-10.14056 0.847777-18.73403 7.656614-21.897835 17.358952a25.236725 25.236725 0 0 0 7.48153 26.905658l180.810981 156.652407-54.195274 233.033228a25.240821 25.240821 0 0 0 9.705409 26.142864l0.129009 0.094198c8.212584 5.865839 19.112867 6.309181 27.814869 1.103748l204.866143-123.548146 204.818021 123.519477c3.91329 2.390772 8.441935 3.654247 13.097541 3.654247 5.353896 0 10.468204-1.640264 14.791047-4.743661 0.033788-0.024573 0.066553-0.049146 0.101365-0.072695a25.273585 25.273585 0 0 0 9.717695-26.136721l-54.198346-233.045515 180.809958-156.655479a25.224439 25.224439 0 0 0 7.483578-26.899515z m-212.898524 167.988865a13.940199 13.940199 0 0 0-4.448782 13.691395l54.694931 235.183387-206.769546-124.696946c-2.21364-1.335146-4.706801-2.001696-7.197914-2.001695s-4.984274 0.666549-7.197914 2.001695L313.834163 771.571312l54.693906-235.177244a13.937127 13.937127 0 0 0-4.448782-13.691395L181.592206 364.597373l240.577215-20.656886a13.939175 13.939175 0 0 0 11.646696-8.461389l93.98141-222.398131 93.983458 222.399155a13.939175 13.939175 0 0 0 11.646695 8.461389l240.571072 20.655862-182.482986 158.104276z" fill="#ffffff" p-id="6249"></path><path d="M574.322876 417.585486c23.947654 2.032412 8.48289 12.017342 8.48289 12.017342s-182.37343 101.083079-200.045691 116.634873c-17.672261 15.55077-2.120467 24.03366-2.120467 24.033661L684.596349 558.961524s-160.460236-13.430304-181.666949-12.723823c-21.205689 0.706481-11.309837-9.189371-11.309837-9.18937s159.047275-112.392916 178.132497-128.651191c19.085222-16.258275 0-19.617643 0-19.617643h-311.732126s194.285312 26.937399 216.302942 28.805989z" fill="#ffffff" p-id="6250"></path></svg>