<?xml version="1.0" standalone="no"?><!DOCTYPE svg PUBLIC "-//W3C//DTD SVG 1.1//EN" "http://www.w3.org/Graphics/SVG/1.1/DTD/svg11.dtd"><svg t="1550588202725" class="icon" style="" viewBox="0 0 1260 1024" version="1.1" xmlns="http://www.w3.org/2000/svg" p-id="6475" xmlns:xlink="http://www.w3.org/1999/xlink" width="39.375" height="32"><defs><style type="text/css"></style></defs><path d="M933.100308 653.312a32.846769 32.846769 0 1 1 0-65.693538 32.846769 32.846769 0 0 1 0 65.693538" fill="#ffffff" p-id="6476"></path><path d="M1150.976 123.825231C1033.452308 12.760615 875.756308 28.672 875.756308 28.672a53.563077 53.563077 0 0 0-53.090462 53.248V70.892308c0 29.223385 24.103385 51.672615 52.932923 51.751384 0 0 151.473231-17.486769 221.971693 83.652923 70.498462 101.218462 41.590154 213.070769 41.590153 213.07077a44.898462 44.898462 0 0 0 45.686154 52.617846h-12.130461c29.302154 0 56.32-23.473231 58.998154-52.539077 0 0 36.785231-184.556308-80.738462-295.620923" fill="#ffffff" p-id="6477"></path><path d="M1031.325538 239.143385c-64.039385-57.659077-138.082462-37.494154-138.082461-37.494154a41.511385 41.511385 0 0 0-35.131077 39.936V231.581538c0 19.456 15.596308 34.185846 35.288615 34.107077 0 0 61.046154-9.531077 95.232 31.035077 34.185846 40.566154 9.767385 96.413538 9.767385 96.413539-5.356308 18.747077 6.065231 33.870769 25.836308 33.870769h3.544615c19.692308 0 38.596923-15.438769 41.432615-34.894769 0 0 26.230154-95.310769-37.80923-153.048616M710.183385 664.339692C691.593846 568.241231 582.892308 508.534154 467.574154 530.904615c-115.475692 22.370462-193.851077 118.547692-175.182769 214.646154 18.747077 96.177231 127.369846 155.963077 242.766769 133.513846 115.318154-22.449231 193.772308-118.547692 175.025231-214.724923zM457.097846 783.753846c-35.446154 16.541538-74.279385 8.349538-86.646154-18.274461-12.524308-26.624 6.222769-61.597538 41.747693-78.139077 35.446154-16.541538 74.279385-8.428308 86.724923 18.195692 12.445538 26.624-6.301538 61.597538-41.747693 78.217846z m81.762462-80.896a35.446154 35.446154 0 1 1 0.078769-71.049846 35.446154 35.446154 0 0 1 0 71.049846z" fill="#ffffff" p-id="6478"></path><path d="M896.708923 491.204923c0-10.712615 103.187692-106.811077 0-166.596923-103.187692-59.864615-291.84 31.113846-286.168615 21.267692C691.593846 206.375385 575.645538 162.264615 516.568615 162.264615c-140.996923 0-509.636923 309.248-509.636923 505.068308 0 195.899077 246.075077 354.697846 549.730462 354.697846 303.576615 0 547.367385-158.798769 547.367384-354.697846 0-165.415385-207.320615-165.415385-207.320615-176.128z m-325.710769 422.203077c-194.008615 27.254154-365.568-52.854154-383.291077-178.963692-17.723077-126.030769 125.164308-250.328615 319.094154-277.661539 194.008615-27.175385 365.568 52.854154 383.369846 178.963693 17.644308 126.030769-125.243077 250.407385-319.172923 277.661538z" fill="#ffffff" p-id="6479"></path></svg>